<?xml version="1.0" standalone="yes"?>
<svg xmlns="http://www.w3.org/2000/svg" width="136" height="96">
<path style="fill:#fcfefe; stroke:none;" d="M0 0L0 96L136 96L136 0L0 0z"/>
<path style="fill:#9ea1a1; stroke:none;" d="M65 20L63 24L64 24L65 21L67 21L68 24L69 24L67 20L65 20z"/>
<path style="fill:#555555; stroke:none;" d="M65 21C61.4076 27.7496 49.0437 41.5731 54 49L65 29L67 29L79 49C81.7812 40.1772 71.0563 28.6213 67 21L65 21z"/>
<path style="fill:#9ea1a1; stroke:none;" d="M62 25L63 26L62 25M69 25L70 26L69 25M61 27L62 28L61 27M70 27L71 28L70 27M60 28L61 29L60 28M71 28L72 29L71 28M65.6667 29.3333L66.3333 29.6667L65.6667 29.3333M59 30L60 31L59 30z"/>
<path style="fill:#fcfefe; stroke:none;" d="M65 30C62.4212 35.5233 58.0323 46.9573 52 49L65 73L67 73L80 49C73.9973 47.114 69.5541 35.4704 67 30L65 30z"/>
<path style="fill:#9ea1a1; stroke:none;" d="M72 30L73 31L72 30M64 31L65 32L64 31M67 31L68 32L67 31M58 32L59 33L58 32M73 32L74 33L73 32M63 33L64 34L63 33M68 33L69 34L68 33M57 34L58 35L57 34M62 34L63 35L62 34M69 34L70 35L69 34M74 34L75 35L74 34M56 35L57 36L56 35M75 35L76 36L75 35M61 36L62 37L61 36M70 36L71 37L70 36M55 37L56 38L55 37M76 37L77 38L76 37M60 38L61 39L60 38M71 38L72 39L71 38M54 39L55 40L54 39M59.3333 39.6667L59.6667 40.3333L59.3333 39.6667M72.3333 39.6667L72.6667 40.3333L72.3333 39.6667M77 39L78 40L77 39M11 41L11 42L14 42L11 41z"/>
<path style="fill:#5eb6dd; stroke:none;" d="M14 41L24 45L24 44L23 42L14 41z"/>
<path style="fill:#9ea1a1; stroke:none;" d="M53 41L54 42L53 41M58 41L59 42L58 41M73 41L74 42L73 41M78 41L79 42L78 41z"/>
<path style="fill:#5eb6dd; stroke:none;" d="M109 42L108 44L108 45L120 42L109 42z"/>
<path style="fill:#9ea1a1; stroke:none;" d="M120 41L121 42L120 41M52 42L53 43L52 42M79 42L80 43L79 42M10 43L10 44L21 46L21 45L17 46L10 43z"/>
<path style="fill:#149bd7; stroke:none;" d="M22 43L22 44L46.6103 51.7029L65 82L67 82C72.109 73.3384 77.8255 56.7547 86.213 51.0887C92.5083 46.8361 102.717 45.8891 110 44L110 43C102.158 43.9962 90.4315 43.8718 83.3897 47.564C76.7405 51.0504 69.214 68.0495 67 75L65 75C62.8107 68.1271 55.1608 50.999 48.6103 47.564C41.5689 43.8717 29.8414 43.9962 22 43z"/>
<path style="fill:#5eb6dd; stroke:none;" d="M25 43L25 44L30 44L25 43z"/>
<path style="fill:#9ea1a1; stroke:none;" d="M57 43L58 44L57 43M74 43L75 44L74 43z"/>
<path style="fill:#5eb6dd; stroke:none;" d="M102 43L102 44L107 44L102 43z"/>
<path style="fill:#fcfefe; stroke:none;" d="M84 55L85 55C92.0778 47.913 108.345 45.9982 118 44C111.223 41.5757 86.6885 48.1436 84 55z"/>
<path style="fill:#9ea1a1; stroke:none;" d="M115 46L111 45L111 46L122 44L115 46z"/>
<path style="fill:#5eb6dd; stroke:none;" d="M31 44L31 45L36 45L31 44z"/>
<path style="fill:#9ea1a1; stroke:none;" d="M51 44L51 47L52 47L51 44M56.3333 44.6667L56.6667 45.3333L56.3333 44.6667M80 44L81 45L80 44z"/>
<path style="fill:#5eb6dd; stroke:none;" d="M96 44L96 45L101 45L96 44z"/>
<path style="fill:#555555; stroke:none;" d="M17.6667 45.3333L18.3333 45.6667L17.6667 45.3333z"/>
<path style="fill:#5eb6dd; stroke:none;" d="M26.6667 45.3333L27.3333 45.6667L26.6667 45.3333M39 45L39 46L42 46L39 45z"/>
<path style="fill:#9ea1a1; stroke:none;" d="M75 45L76 46L75 45z"/>
<path style="fill:#5eb6dd; stroke:none;" d="M90 45L90 46L93 46L90 45M103 45L103 46L106 46L103 45z"/>
<path style="fill:#555555; stroke:none;" d="M113.667 45.3333L114.333 45.6667L113.667 45.3333M19 46L19 47L48 57C42.8972 49.131 27.8173 47.1873 19 46z"/>
<path style="fill:#9ea1a1; stroke:none;" d="M22.6667 46.3333L23.3333 46.6667L22.6667 46.3333z"/>
<path style="fill:#5eb6dd; stroke:none;" d="M29 46L29 47L32 47L29 46M44 46L44 47L48 47L44 46z"/>
<path style="fill:#9ea1a1; stroke:none;" d="M55 46L56 47L55 46M80 46L81 47L80 46z"/>
<path style="fill:#5eb6dd; stroke:none;" d="M84 46L84 47L88 47L84 46M100 46L100 47L103 47L100 46z"/>
<path style="fill:#9ea1a1; stroke:none;" d="M108 46L108 47L112 48L112 47L108 46z"/>
<path style="fill:#555555; stroke:none;" d="M110 46L110 47L113 47L110 46z"/>
<path style="fill:#9ea1a1; stroke:none;" d="M20.6667 47.3333L21.3333 47.6667L20.6667 47.3333M26.6667 47.3333L27.3333 47.6667L26.6667 47.3333z"/>
<path style="fill:#5eb6dd; stroke:none;" d="M33 47L33 48L36 48L33 47z"/>
<path style="fill:#9ea1a1; stroke:none;" d="M52.3333 47.6667L52.6667 48.3333L52.3333 47.6667M79.3333 47.6667L79.6667 48.3333L79.3333 47.6667z"/>
<path style="fill:#5eb6dd; stroke:none;" d="M96 47L96 48L99 48L96 47z"/>
<path style="fill:#9ea1a1; stroke:none;" d="M104.667 47.3333L105.333 47.6667L104.667 47.3333z"/>
<path style="fill:#555555; stroke:none;" d="M84 57L110 48C103.029 45.5062 87.9232 50.9501 84 57z"/>
<path style="fill:#9ea1a1; stroke:none;" d="M23 48L24 49L23 48M30.6667 48.3333L31.3333 48.6667L30.6667 48.3333z"/>
<path style="fill:#5eb6dd; stroke:none;" d="M37.6667 48.3333L38.3333 48.6667L37.6667 48.3333M50 48L51 49L50 48z"/>
<path style="fill:#9ea1a1; stroke:none;" d="M54 48L55 49L54 48M77 48L78 49L77 48z"/>
<path style="fill:#5eb6dd; stroke:none;" d="M81 48L82 49L81 48M93.6667 48.3333L94.3333 48.6667L93.6667 48.3333z"/>
<path style="fill:#9ea1a1; stroke:none;" d="M100.667 48.3333L101.333 48.6667L100.667 48.3333M108 48L109 49L108 48M25.6667 49.3333L26.3333 49.6667L25.6667 49.3333M34.6667 49.3333L35.3333 49.6667L34.6667 49.3333z"/>
<path style="fill:#5eb6dd; stroke:none;" d="M41.6667 49.3333L42.3333 49.6667L41.6667 49.3333M51.3333 49.6667L51.6667 50.3333L51.3333 49.6667z"/>
<path style="fill:#9ea1a1; stroke:none;" d="M53 49L54 50L53 49M78 49L79 50L78 49z"/>
<path style="fill:#5eb6dd; stroke:none;" d="M80.3333 49.6667L80.6667 50.3333L80.3333 49.6667M89.6667 49.3333L90.3333 49.6667L89.6667 49.3333z"/>
<path style="fill:#9ea1a1; stroke:none;" d="M96.6667 49.3333L97.3333 49.6667L96.6667 49.3333M105.667 49.3333L106.333 49.6667L105.667 49.3333M28 50L29 51L28 50M37.6667 50.3333L38.3333 50.6667L37.6667 50.3333z"/>
<path style="fill:#5eb6dd; stroke:none;" d="M44.6667 50.3333L45.3333 50.6667L44.6667 50.3333M86.6667 50.3333L87.3333 50.6667L86.6667 50.3333z"/>
<path style="fill:#9ea1a1; stroke:none;" d="M93.6667 50.3333L94.3333 50.6667L93.6667 50.3333M103 50L104 51L103 50M30.6667 51.3333L31.3333 51.6667L30.6667 51.3333M41.6667 51.3333L42.3333 51.6667L41.6667 51.3333z"/>
<path style="fill:#5eb6dd; stroke:none;" d="M47.3333 51.6667L47.6667 52.3333L47.3333 51.6667M52.3333 51.6667L52.6667 52.3333L52.3333 51.6667M79.3333 51.6667L79.6667 52.3333L79.3333 51.6667M84.3333 51.6667L84.6667 52.3333L84.3333 51.6667z"/>
<path style="fill:#9ea1a1; stroke:none;" d="M89.6667 51.3333L90.3333 51.6667L89.6667 51.3333M100.667 51.3333L101.333 51.6667L100.667 51.3333M33.6667 52.3333L34.3333 52.6667L33.6667 52.3333M44.6667 52.3333L45.3333 52.6667L44.6667 52.3333M86.6667 52.3333L87.3333 52.6667L86.6667 52.3333M98 52L99 53L98 52M36 53L37 54L36 53z"/>
<path style="fill:#5eb6dd; stroke:none;" d="M48.3333 53.6667L48.6667 54.3333L48.3333 53.6667M53 53L54 54L53 53M78 53L79 54L78 53M83.3333 53.6667L83.6667 54.3333L83.3333 53.6667z"/>
<path style="fill:#9ea1a1; stroke:none;" d="M95 53L96 54L95 53M38.6667 54.3333L39.3333 54.6667L38.6667 54.3333M46 54L47 55L46 54M85 54L86 55L85 54M92.6667 54.3333L93.3333 54.6667L92.6667 54.3333M41.6667 55.3333L42.3333 55.6667L41.6667 55.3333M47 55L48 56L47 55z"/>
<path style="fill:#5eb6dd; stroke:none;" d="M49 55L50 56L49 55M54 55L55 56L54 55M77 55L78 56L77 55M82 55L83 56L82 55z"/>
<path style="fill:#9ea1a1; stroke:none;" d="M84 55L85 56L84 55M89.6667 55.3333L90.3333 55.6667L89.6667 55.3333M43.6667 56.3333L44.3333 56.6667L43.6667 56.3333z"/>
<path style="fill:#5eb6dd; stroke:none;" d="M55.3333 56.6667L55.6667 57.3333L55.3333 56.6667M76 56L77 57L76 56z"/>
<path style="fill:#9ea1a1; stroke:none;" d="M87.6667 56.3333L88.3333 56.6667L87.6667 56.3333M46 57L46 58L49 58L46 57z"/>
<path style="fill:#5eb6dd; stroke:none;" d="M50 57L51 58L50 57M81 57L82 58L81 57z"/>
<path style="fill:#9ea1a1; stroke:none;" d="M83 57L83 58L86 58L83 57z"/>
<path style="fill:#5eb6dd; stroke:none;" d="M51 58L52 59L51 58M56 58L57 59L56 58M75 58L76 59L75 58M80 58L81 59L80 58M52 60L53 61L52 60M57 60L58 61L57 60M74 60L75 61L74 60M79 60L80 61L79 60M53 62L54 63L53 62M58 62L59 63L58 62M73 62L74 63L73 62M78 62L79 63L78 62M54.3333 63.6667L54.6667 64.3333L54.3333 63.6667M59 63L60 64L59 63M72 63L73 64L72 63M77.3333 63.6667L77.6667 64.3333L77.3333 63.6667M55.3333 65.6667L55.6667 66.3333L55.3333 65.6667M60.3333 65.6667L60.6667 66.3333L60.3333 65.6667M71.3333 65.6667L71.6667 66.3333L71.3333 65.6667M76 65L77 66L76 65M56 67L57 68L56 67M61 67L62 68L61 67M70 67L71 68L70 67M75 67L76 68L75 67M57 69L58 70L57 69M62 69L63 70L62 69M69 69L70 70L69 69M74 69L75 70L74 69M63 70L64 71L63 70M68 70L69 71L68 70M58 71L59 72L58 71M73 71L74 72L73 71M59 72L60 73L59 72M64 72L65 73L64 72M67 72L68 73L67 72M72 72L73 73L72 72M65 73L65 75L67 75L67 73L65 73M60 74L61 75L60 74M71 74L72 75L71 74M70.3333 75.6667L70.6667 76.3333L70.3333 75.6667M61 76L62 77L61 76M69.3333 77.6667L69.6667 78.3333L69.3333 77.6667M62 78L63 79L62 78M63 79L64 80L63 79M68 79L69 80L68 79M64 81L65 82L64 81M67 81L68 82L67 81M65 82L65 84L67 84L67 82L65 82z"/>
</svg>
